#!OML:ASF F:\VICON\USERDATA\INSTALL\rory3\rory3.ASF
:FULLY-SPECIFIED
:DEGREES
1463
root 0.881542 17.8934 0.501439 8.97949 2.38034 0.501058
lowerback 10.1639 1.76887 1.12152
upperback 2.32679 2.60027 3.55395
thorax -3.38959 1.29008 2.72659
lowerneck -13.1239 -13.238 -12.4403
upperneck 27.5193 -20.761 15.1392
head 14.7966 -8.63975 4.31833
rclavicle 2.3059e-014 -3.18055e-014
rhumerus 17.2124 2.52929 -38.9642
rradius 65.7607
rwrist 27.1308
rhand -52.6642 -5.8596
rfingers 7.12502
rthumb -25.144 -34.2237
lclavicle 2.3059e-014 -3.18055e-014
lhumerus -34.2096 2.19548 77.8575
lradius 57.3607
lwrist -8.51329
lhand -18.814 21.3824
lfingers 7.12502
lthumb 7.48471 51.23
rfemur -22.178 -3.63545 13.9108
rtibia 31.2559
rfoot -15.5662 -7.39389
rtoes 5.18783
lfemur -14.9762 -0.425695 -13.6963
ltibia 21.6784
lfoot -10.0555 9.1803
ltoes -26.1812
1464
root 0.888005 17.8968 0.479963 9.16712 1.95774 0.67394
lowerback 10.4565 1.67839 1.01866
upperback 2.41262 2.48428 3.78578
thorax -3.47194 1.23352 3.03634
lowerneck -13.0648 -13.2199 -12.5494
upperneck 27.9288 -20.6477 14.7393
head 14.8969 -8.63331 4.21466
rclavicle 3.57812e-015 3.33958e-014
rhumerus 16.0772 2.42313 -39.8751
rradius 66.0055
rwrist 24.2407
rhand -53.2881 -8.21104
rfingers 7.12502
rthumb -25.7417 -36.49
lclavicle 3.57812e-015 3.33958e-014
lhumerus -33.9074 2.12044 78.3322
lradius 57.0773
lwrist -8.93614
lhand -19.0975 21.2459
lfingers 7.12502
lthumb 7.211 51.1031
rfemur -22.6072 -3.35263 13.6667
rtibia 31.3923
rfoot -15.4642 -7.34703
rtoes 4.90337
lfemur -15.136 -0.180738 -13.9543
ltibia 21.609
lfoot -9.9832 9.32087
ltoes -26.0886
1465
root 0.895072 17.8948 0.451908 9.52262 1.36504 0.780373
lowerback 10.5859 1.61755 0.982119
upperback 2.46869 2.40988 4.00702
thorax -3.49266 1.19706 3.29686
lowerneck -12.8311 -13.1315 -12.6794
upperneck 28.12 -20.4512 14.4998
head 14.8735 -8.59627 4.20273
rclavicle -3.22031e-014 -3.49861e-014
rhumerus 14.903 2.17808 -40.9089
rradius 66.3272
rwrist 22.9223
rhand -53.7125 -10.1618
rfingers 7.12502
rthumb -26.1481 -38.3812
lclavicle -3.22031e-014 -3.49861e-014
lhumerus -33.7703 1.93087 78.8005
lradius 57.0026
lwrist -9.45523
lhand -19.6069 20.7316
lfingers 7.12502
lthumb 6.71929 50.605
rfemur -23.321 -3.01768 13.4933
rtibia 31.5459
rfoot -15.2775 -7.27344
rtoes 4.46919
lfemur -15.5066 0.125492 -14.1573
ltibia 21.5474
lfoot -9.80032 9.55562
ltoes -26.0163
1466
root 0.903593 17.8912 0.42412 9.98708 0.708525 0.90314
lowerback 10.5631 1.53348 0.957136
upperback 2.48805 2.30104 4.19711
thorax -3.46316 1.14342 3.52638
lowerneck -12.4714 -13.0119 -12.8061
upperneck 28.2302 -20.2284 14.3225
head 14.7904 -8.55206 4.22664
rclavicle -1.74931e-014 -3.02153e-014
rhumerus 13.7933 1.99585 -41.934
rradius 66.5346
rwrist 22.8511
rhand -52.511 -10.2556
rfingers 7.12502
rthumb -24.9973 -38.6402
lclavicle -1.74931e-014 -3.02153e-014
lhumerus -33.8224 1.64599 79.2543
lradius 57.2852
lwrist -9.54073
lhand -19.8641 20.9488
lfingers 7.12502
lthumb 6.47101 50.8299
rfemur -24.2091 -2.66032 13.2746
rtibia 31.7117
rfoot -15.0381 -7.16713
rtoes 4.71554
lfemur -15.9811 0.488405 -14.393
ltibia 21.4816
lfoot -9.64814 9.78546
ltoes -26.0053
1467
root 0.912491 17.8895 0.403096 10.2611 0.252965 1.06921
lowerback 10.7165 1.36366 1.00163
upperback 2.57409 2.08892 4.38182
thorax -3.45149 1.0374 3.72277
lowerneck -12.2548 -12.8893 -12.8797
upperneck 28.3289 -19.9816 14.0923
head 14.7144 -8.48984 4.21652
rclavicle 7.95139e-016 4.45278e-014
rhumerus 12.9318 2.18744 -42.6853
rradius 66.4426
rwrist 23.0126
rhand -51.2799 -9.60517
rfingers 7.12502
rthumb -23.8171 -38.1488
lclavicle 7.95139e-016 4.45278e-014
lhumerus -33.7683 1.27051 79.7386
lradius 57.5268
lwrist -9.40074
lhand -19.908 21.1914
lfingers 7.12502
lthumb 6.4286 51.0738
rfemur -24.7991 -2.4398 13.0205
rtibia 31.8872
rfoot -14.8571 -7.07405
rtoes 4.77085
lfemur -16.2402 0.738216 -14.6547
ltibia 21.4084
lfoot -9.53369 9.90735
ltoes -26.0448
1468
root 0.922904 17.8897 0.381039 10.4564 -0.112408 1.32539
lowerback 11.0357 1.13431 1.06391
upperback 2.69364 1.80325 4.53196
thorax -3.4888 0.894412 3.88209
lowerneck -12.2916 -12.7638 -12.8604
upperneck 28.4877 -19.6887 13.7148
head 14.6794 -8.39838 4.12806
rclavicle 1.03368e-014 7.95139e-015
rhumerus 12.0988 2.65829 -43.3503
rradius 66.4189
rwrist 23.3942
rhand -51.1171 -9.05293
rfingers 7.12502
rthumb -23.6609 -37.6168
lclavicle 1.03368e-014 7.95139e-015
lhumerus -33.6371 0.74404 80.248
lradius 57.7027
lwrist -9.1616
lhand -19.4022 22.0333
lfingers 7.12502
lthumb 6.91687 51.9003
rfemur -25.2659 -2.35994 12.6844
rtibia 32.0586
rfoot -14.7074 -6.89984
rtoes 5.3456
lfemur -16.3992 0.892737 -15.0068
ltibia 21.2744
lfoot -9.41227 10.024
ltoes -25.8786
